# xmcd CD database file
#
# Track frame offsets:
#	150
#	19545
#	36308
#	53381
#	68506
#	83273
#	99378
#	113599
#	129092
#	163259
#	177112
#
# Disc length: 2548 seconds
#
# Revision: 0
# Processed by: cddbd v1.4PL0 Copyright (c) Steve Scherf et al.
# Submitted via: CDex 1.50beta10
#
DISCID=7009f20b
DTITLE=Phil Coulter - 2-The Charming Sky
DYEAR=2001
DGENRE=New Age
TTITLE0=Only A Woman's Heart
TTITLE1=Lady In Red
TTITLE2=The First Time Ever I Saw Your Face
TTITLE3=Sonny
TTITLE4=Local Hero 
TTITLE5=Those Endearing Young Charms
TTITLE6=She Moved Through The Fair
TTITLE7=From A Distance
TTITLE8=The Pink Panther/ The Thorn Birds/Baby Elephant Walk - Moon River Peter Gunn
TTITLE9=Buachaill O'n Eirne ( Come By The Hills )
TTITLE10=Steal Away
EXTD=YEAR: 2001
EXTT0=
EXTT1=
EXTT2=
EXTT3=
EXTT4=
EXTT5=
EXTT6=
EXTT7=
EXTT8=
EXTT9=
EXTT10=
PLAYORDER=
